<?xml version="1.0" encoding="UTF-8"?><svg xmlns="http://www.w3.org/2000/svg" xmlns:xlink="http://www.w3.org/1999/xlink" fill-opacity="1" color-rendering="auto" color-interpolation="auto" text-rendering="auto" stroke="black" stroke-linecap="square" width="899" stroke-miterlimit="10" shape-rendering="auto" stroke-opacity="1" fill="black" stroke-dasharray="none" font-weight="normal" stroke-width="1" height="493" font-family="'Dialog'" font-style="normal" stroke-linejoin="miter" font-size="12px" stroke-dashoffset="0" image-rendering="auto">
  <!--Generated by ySVG 2.5-->
  <defs id="genericDefs"/>
  <g>
    <defs id="defs1">
      <clipPath clipPathUnits="userSpaceOnUse" id="clipPath1">
        <path d="M0 0 L899 0 L899 493 L0 493 L0 0 Z"/>
      </clipPath>
      <clipPath clipPathUnits="userSpaceOnUse" id="clipPath2">
        <path d="M1420 268 L2319 268 L2319 761 L1420 761 L1420 268 Z"/>
      </clipPath>
    </defs>
    <g fill="white" text-rendering="geometricPrecision" shape-rendering="geometricPrecision" transform="translate(-1420,-268)" stroke="white">
      <rect x="1420" width="899" height="493" y="268" clip-path="url(#clipPath2)" stroke="none"/>
    </g>
    <g fill="rgb(255,204,0)" text-rendering="geometricPrecision" shape-rendering="geometricPrecision" transform="matrix(1,0,0,1,-1420,-268)" stroke="rgb(255,204,0)">
      <rect x="1737.3121" width="299.6" height="86" y="283.1218" clip-path="url(#clipPath2)" stroke="none"/>
    </g>
    <g text-rendering="geometricPrecision" stroke-miterlimit="1.45" shape-rendering="geometricPrecision" transform="matrix(1,0,0,1,-1420,-268)" stroke-linecap="butt">
      <rect fill="none" x="1737.3121" width="299.6" height="86" y="283.1218" clip-path="url(#clipPath2)"/>
      <text x="1771.7351" xml:space="preserve" y="330.8357" clip-path="url(#clipPath2)" font-family="sans-serif" stroke="none">Wait for a message to come in from a client</text>
    </g>
    <g fill="rgb(255,204,0)" text-rendering="geometricPrecision" shape-rendering="geometricPrecision" transform="matrix(1,0,0,1,-1420,-268)" stroke="rgb(255,204,0)">
      <path d="M1702.4161 453.1618 L1887.1121 403.7618 L2071.8081 453.1618 L1887.1121 502.5618 Z" fill-rule="evenodd" clip-path="url(#clipPath2)" stroke="none"/>
    </g>
    <g text-rendering="geometricPrecision" stroke-miterlimit="1.45" shape-rendering="geometricPrecision" transform="matrix(1,0,0,1,-1420,-268)" stroke-linecap="butt">
      <path fill="none" d="M1702.4161 453.1618 L1887.1121 403.7618 L2071.8081 453.1618 L1887.1121 502.5618 Z" fill-rule="evenodd" clip-path="url(#clipPath2)"/>
      <text x="1804.0642" xml:space="preserve" y="450.5251" clip-path="url(#clipPath2)" font-family="sans-serif" stroke="none">Check message header to see </text>
      <text x="1812.7332" xml:space="preserve" y="465.2263" clip-path="url(#clipPath2)" font-family="sans-serif" stroke="none">how to handle this message</text>
    </g>
    <g fill="rgb(255,204,0)" text-rendering="geometricPrecision" shape-rendering="geometricPrecision" transform="matrix(1,0,0,1,-1420,-268)" stroke="rgb(255,204,0)">
      <rect x="1449.1201" width="369.392" height="69.68" y="571.1218" clip-path="url(#clipPath2)" stroke="none"/>
    </g>
    <g text-rendering="geometricPrecision" stroke-miterlimit="1.45" shape-rendering="geometricPrecision" transform="matrix(1,0,0,1,-1420,-268)" stroke-linecap="butt">
      <rect fill="none" x="1449.1201" width="369.392" height="69.68" y="571.1218" clip-path="url(#clipPath2)"/>
      <text x="1510.4088" xml:space="preserve" y="610.6757" clip-path="url(#clipPath2)" font-family="sans-serif" stroke="none">Send message to every other connected client</text>
    </g>
    <g fill="rgb(255,204,0)" text-rendering="geometricPrecision" shape-rendering="geometricPrecision" transform="matrix(1,0,0,1,-1420,-268)" stroke="rgb(255,204,0)">
      <rect x="2019.8623" width="217.6996" height="40.4" y="576.0818" clip-path="url(#clipPath2)" stroke="none"/>
    </g>
    <g text-rendering="geometricPrecision" stroke-miterlimit="1.45" shape-rendering="geometricPrecision" transform="matrix(1,0,0,1,-1420,-268)" stroke-linecap="butt">
      <rect fill="none" x="2019.8623" width="217.6996" height="40.4" y="576.0818" clip-path="url(#clipPath2)"/>
      <text x="2058.678" xml:space="preserve" y="600.9957" clip-path="url(#clipPath2)" font-family="sans-serif" stroke="none">Prepare to save file locally</text>
    </g>
    <g fill="rgb(255,204,0)" text-rendering="geometricPrecision" shape-rendering="geometricPrecision" transform="matrix(1,0,0,1,-1420,-268)" stroke="rgb(255,204,0)">
      <rect x="1978.9121" width="299.6" height="98.8" y="646.4818" clip-path="url(#clipPath2)" stroke="none"/>
    </g>
    <g text-rendering="geometricPrecision" stroke-miterlimit="1.45" shape-rendering="geometricPrecision" transform="matrix(1,0,0,1,-1420,-268)" stroke-linecap="butt">
      <rect fill="none" x="1978.9121" width="299.6" height="98.8" y="646.4818" clip-path="url(#clipPath2)"/>
      <text x="2030.9923" xml:space="preserve" y="700.5956" clip-path="url(#clipPath2)" font-family="sans-serif" stroke="none">Forward file to each connected client</text>
      <path fill="none" d="M1887.1121 369.1218 L1887.1121 395.7965" clip-path="url(#clipPath2)"/>
      <path d="M1887.1121 403.7965 L1892.1121 391.7965 L1887.1121 394.7965 L1882.1121 391.7965 Z" clip-path="url(#clipPath2)" stroke="none"/>
      <path fill="none" d="M1830.374 487.3889 L1698.4203 566.9895" clip-path="url(#clipPath2)"/>
      <path d="M1691.5702 571.1218 L1704.4281 569.2047 L1699.2766 566.473 L1699.2627 560.642 Z" clip-path="url(#clipPath2)" stroke="none"/>
      <text x="1627.8552" xml:space="preserve" y="528.3325" clip-path="url(#clipPath2)" font-family="sans-serif" stroke="none">Message contains text</text>
      <path fill="none" d="M1449.1201 605.9618 L1435.6525 605.9618 L1435.6525 326.1218 L1729.3121 326.1218" clip-path="url(#clipPath2)"/>
      <path d="M1737.3121 326.1218 L1725.3121 321.1218 L1728.3121 326.1218 L1725.3121 331.1218 Z" clip-path="url(#clipPath2)" stroke="none"/>
      <path fill="none" d="M1944.5924 487.2122 L2087.7297 572.0045" clip-path="url(#clipPath2)"/>
      <path d="M2094.6125 576.0818 L2086.8364 565.6639 L2086.8691 571.4948 L2081.7397 574.2676 Z" clip-path="url(#clipPath2)" stroke="none"/>
      <text x="2031.5059" xml:space="preserve" y="530.2088" clip-path="url(#clipPath2)" font-family="sans-serif" stroke="none">Message contains a file</text>
      <path fill="none" d="M2128.7122 616.4818 L2128.7122 638.4818" clip-path="url(#clipPath2)"/>
      <path d="M2128.7122 646.4818 L2133.7122 634.4818 L2128.7122 637.4818 L2123.7122 634.4818 Z" clip-path="url(#clipPath2)" stroke="none"/>
      <path fill="none" d="M2278.512 695.8818 L2303.3196 695.8818 L2303.3196 326.1218 L2044.9121 326.1218" clip-path="url(#clipPath2)"/>
      <path d="M2036.9121 326.1218 L2048.9121 331.1218 L2045.9121 326.1218 L2048.9121 321.1218 Z" clip-path="url(#clipPath2)" stroke="none"/>
    </g>
  </g>
</svg>
