<?xml version="1.0" encoding="UTF-8"?><svg xmlns="http://www.w3.org/2000/svg" xmlns:xlink="http://www.w3.org/1999/xlink" fill-opacity="1" color-rendering="auto" color-interpolation="auto" text-rendering="auto" stroke="black" stroke-linecap="square" width="452" stroke-miterlimit="10" shape-rendering="auto" stroke-opacity="1" fill="black" stroke-dasharray="none" font-weight="normal" stroke-width="1" height="187" font-family="'Dialog'" font-style="normal" stroke-linejoin="miter" font-size="12px" stroke-dashoffset="0" image-rendering="auto">
  <!--Generated by ySVG 2.5-->
  <defs id="genericDefs"/>
  <g>
    <defs id="defs1">
      <clipPath clipPathUnits="userSpaceOnUse" id="clipPath1">
        <path d="M0 0 L452 0 L452 187 L0 187 L0 0 Z"/>
      </clipPath>
      <clipPath clipPathUnits="userSpaceOnUse" id="clipPath2">
        <path d="M2508 478 L2960 478 L2960 665 L2508 665 L2508 478 Z"/>
      </clipPath>
    </defs>
    <g fill="white" text-rendering="geometricPrecision" shape-rendering="geometricPrecision" transform="translate(-2508,-478)" stroke="white">
      <rect x="2508" width="452" height="187" y="478" clip-path="url(#clipPath2)" stroke="none"/>
    </g>
    <g fill="rgb(255,204,0)" text-rendering="geometricPrecision" shape-rendering="geometricPrecision" transform="matrix(1,0,0,1,-2508,-478)" stroke="rgb(255,204,0)">
      <rect x="2523.35" width="370" height="40.4" y="493.12" clip-path="url(#clipPath2)" stroke="none"/>
    </g>
    <g text-rendering="geometricPrecision" stroke-miterlimit="1.45" shape-rendering="geometricPrecision" transform="matrix(1,0,0,1,-2508,-478)" stroke-linecap="butt">
      <rect fill="none" x="2523.35" width="370" height="40.4" y="493.12" clip-path="url(#clipPath2)"/>
      <text x="2587.9546" xml:space="preserve" y="518.0339" clip-path="url(#clipPath2)" font-family="sans-serif" stroke="none">Create a socket to welcome new connections</text>
    </g>
    <g fill="rgb(255,204,0)" text-rendering="geometricPrecision" shape-rendering="geometricPrecision" transform="matrix(1,0,0,1,-2508,-478)" stroke="rgb(255,204,0)">
      <rect x="2523.35" width="370" height="71.7664" y="577.3106" clip-path="url(#clipPath2)" stroke="none"/>
    </g>
    <g text-rendering="geometricPrecision" stroke-miterlimit="1.45" shape-rendering="geometricPrecision" transform="matrix(1,0,0,1,-2508,-478)" stroke-linecap="butt">
      <rect fill="none" x="2523.35" width="370" height="71.7664" y="577.3106" clip-path="url(#clipPath2)"/>
      <text x="2568.6011" xml:space="preserve" y="610.5571" clip-path="url(#clipPath2)" font-family="sans-serif" stroke="none">When a client connects, start a new thread to handle</text>
      <text x="2592.2788" xml:space="preserve" y="625.2582" clip-path="url(#clipPath2)" font-family="sans-serif" stroke="none">it and apend it to a list of active connections</text>
      <path fill="none" d="M2708.3501 533.52 L2708.3501 569.3106" clip-path="url(#clipPath2)"/>
      <path d="M2708.3501 577.3106 L2713.3501 565.3106 L2708.3501 568.3106 L2703.3501 565.3106 Z" clip-path="url(#clipPath2)" stroke="none"/>
      <path fill="none" d="M2893.3501 613.1938 L2944.823 613.1938 L2944.823 589.8471 L2896.1829 589.8471 L2893.3501 590.1992" clip-path="url(#clipPath2)"/>
      <path d="M2893.3501 590.1992 L2905.8752 593.6808 L2902.2812 589.0891 L2904.6416 583.7572 Z" clip-path="url(#clipPath2)" stroke="none"/>
    </g>
  </g>
</svg>
